<?xml version="1.0" encoding="utf-8"?>
<!-- Generator: Adobe Illustrator 26.5.0, SVG Export Plug-In . SVG Version: 6.00 Build 0)  -->
<svg version="1.1" id="Layer_1" xmlns="http://www.w3.org/2000/svg" xmlns:xlink="http://www.w3.org/1999/xlink" x="0px" y="0px"
	 viewBox="0 0 512 512" style="enable-background:new 0 0 512 512;" xml:space="preserve">
<style type="text/css">
	.st0{fill:url(#SVGID_1_);}
	.st1{fill:#FFFFFF;}
</style>
<g>
	
		<radialGradient id="SVGID_1_" cx="-116.8705" cy="716.4091" r="0.6972" gradientTransform="matrix(800 0 0 -799.9985 93595 573635.375)" gradientUnits="userSpaceOnUse">
		<stop  offset="0" style="stop-color:#0099FF"/>
		<stop  offset="0.6098" style="stop-color:#A033FF"/>
		<stop  offset="0.9348" style="stop-color:#FF5280"/>
		<stop  offset="1" style="stop-color:#FF7061"/>
	</radialGradient>
	<path class="st0" d="M256,0.05C111.85,0.05,0.05,105.71,0.05,248.32c0,74.63,30.61,139.13,80.37,183.67
		c4.2,3.69,6.76,9.01,6.86,14.54l1.43,45.56c0.41,14.54,15.46,23.96,28.77,18.12l50.78-22.42c4.3-1.95,9.11-2.25,13.72-1.02
		c23.34,6.45,48.22,9.83,74.12,9.83c144.15,0,255.95-105.66,255.95-248.27S400.15,0.05,256,0.05z"/>
	<path class="st1" d="M102.33,320.91l75.15-119.27c11.98-19.04,37.57-23.65,55.49-10.24l59.79,44.84c5.53,4.1,13,4.1,18.53-0.1
		l80.78-61.33c10.75-8.19,24.88,4.71,17.61,16.18l-75.15,119.27c-11.98,19.04-37.57,23.65-55.59,10.24l-59.79-44.84
		c-5.53-4.1-13.1-4.1-18.53,0.1l-80.78,61.33C109.19,345.27,95.06,332.38,102.33,320.91z"/>
</g>
</svg>
